<?xml version="1.0" standalone="no"?>
<!DOCTYPE svg PUBLIC "-//W3C//DTD SVG 20010904//EN"
 "http://www.w3.org/TR/2001/REC-SVG-20010904/DTD/svg10.dtd">
<svg version="1.0" xmlns="http://www.w3.org/2000/svg"
 width="512.000000pt" height="512.000000pt" viewBox="0 0 512.000000 512.000000"
 preserveAspectRatio="xMidYMid meet">
<metadata>
Created by potrace 1.14, written by Peter Selinger 2001-2017
</metadata>
<g transform="translate(0.000000,512.000000) scale(0.100000,-0.100000)"
fill="#000000" stroke="none">
<path d="M0 2675 c0 -1571 3 -2445 10 -2445 5 0 7 6 4 13 -2 7 2 27 11 43 8
16 15 25 15 19 0 -5 7 0 15 13 9 12 15 30 13 39 -2 12 3 17 14 15 12 -2 16 2
12 11 -3 8 2 17 11 21 9 3 13 11 9 17 -4 7 1 18 10 24 9 7 19 23 21 36 3 12 9
27 14 32 5 5 7 16 4 23 -3 8 0 14 6 14 5 0 15 19 21 43 6 23 15 50 21 60 5 10
7 22 4 27 -4 6 -1 10 4 10 6 0 11 6 11 14 0 7 7 19 15 26 8 7 12 17 9 22 -4 6
-2 13 4 17 7 4 13 17 15 30 2 13 10 29 18 35 8 6 16 20 17 31 2 11 8 23 13 26
5 3 7 14 3 24 -5 12 -4 16 4 11 6 -3 13 -2 17 4 3 5 1 10 -6 10 -7 0 2 12 19
26 18 15 32 33 32 40 0 7 14 28 31 46 18 18 28 27 24 19 -6 -10 -4 -12 4 -7 7
5 10 14 7 21 -6 15 20 28 37 18 7 -3 9 -3 5 2 -8 8 15 35 31 35 6 0 8 6 5 14
-3 8 3 17 14 20 14 5 18 13 14 28 -3 14 -1 19 6 14 7 -4 12 -1 12 8 0 9 -6 15
-12 13 -7 -1 -12 3 -11 10 2 7 -1 23 -6 36 -9 22 -7 24 17 20 26 -3 26 -3 5 6
-30 13 -29 17 5 16 20 0 27 5 26 18 -2 16 8 22 29 18 5 -1 6 3 3 8 -3 5 2 15
11 22 12 10 14 10 9 2 -4 -8 -2 -13 4 -13 7 0 10 7 6 15 -3 8 3 19 12 25 13 9
14 10 1 7 -8 -3 -21 3 -27 14 -9 14 -9 17 2 13 7 -3 19 3 27 12 9 12 10 15 2
10 -14 -8 -17 2 -13 41 1 13 -2 28 -6 34 -9 16 -11 78 -2 82 4 1 5 12 2 24 -4
13 -10 20 -15 17 -13 -8 -11 10 3 24 7 7 8 12 3 12 -4 0 0 10 11 22 10 12 13
18 5 13 -10 -5 -12 -4 -7 3 4 7 17 12 29 12 16 0 18 3 9 9 -11 7 -10 10 3 15
9 3 21 4 26 0 5 -3 9 3 9 12 0 10 3 14 6 11 9 -8 84 74 78 85 -3 4 3 5 12 1
13 -5 16 -3 11 10 -4 10 -2 17 5 17 6 0 9 3 5 6 -3 4 1 13 9 21 8 8 12 19 9
24 -4 5 -1 9 4 9 6 0 10 3 9 8 -4 14 13 52 23 52 6 0 7 5 3 11 -3 6 0 16 7 21
10 7 8 8 -9 5 -12 -3 -20 -1 -16 4 3 5 11 9 19 9 8 0 17 5 20 10 4 6 3 10 -2
9 -21 -4 -25 2 -11 14 25 19 32 71 13 91 -10 10 -12 16 -5 16 7 0 9 7 6 17 -4
9 -1 20 6 25 9 5 9 8 1 8 -8 0 -9 9 -4 28 4 15 6 39 5 55 -2 15 1 27 5 27 12
0 -2 159 -19 219 -5 19 -5 33 1 37 5 3 7 9 4 13 -8 14 19 41 53 50 17 5 32 6
32 1 0 -11 17 -8 58 9 30 13 47 51 21 51 -5 0 -7 5 -4 10 4 6 10 8 15 5 4 -3
14 3 21 12 12 15 12 16 -3 10 -10 -3 -18 -2 -18 3 0 6 5 10 11 10 6 0 9 7 5
15 -3 8 -2 14 2 14 25 -4 32 2 23 19 -7 12 -4 24 10 41 12 15 16 28 11 33 -12
12 -3 50 9 42 5 -3 9 -1 9 5 0 5 -5 13 -12 17 -8 5 -7 10 3 18 15 12 20 27 23
63 0 13 6 23 13 23 8 0 11 11 8 30 -2 17 1 30 7 30 6 0 6 6 -2 15 -10 12 -9
16 4 21 12 5 14 10 6 19 -7 9 -7 21 0 41 6 15 9 33 6 39 -2 6 2 22 9 35 11 21
11 26 -4 38 -9 7 -11 11 -4 8 16 -8 35 48 20 63 -7 7 -7 11 -1 11 12 0 12 59
1 78 -5 7 -4 12 2 12 6 0 11 7 11 16 0 8 4 13 9 10 5 -3 11 3 14 15 4 16 2 19
-16 14 -15 -4 -18 -3 -9 3 7 5 10 16 7 24 -4 10 3 24 16 37 21 20 22 21 3 22
-10 0 -13 3 -6 6 6 2 12 11 12 19 0 8 5 14 11 14 6 0 8 7 5 16 -4 9 -2 13 5 8
8 -4 9 1 4 15 -5 15 -2 21 9 21 9 0 16 5 16 11 0 5 -3 8 -7 6 -5 -3 -9 6 -10
20 0 15 2 22 5 17 4 -5 16 -10 27 -12 15 -2 17 -1 6 6 -8 6 -10 15 -6 22 6 9
4 11 -6 5 -11 -7 -11 -5 1 11 8 10 21 23 28 27 6 4 12 16 12 27 0 10 6 21 12
23 10 4 9 6 -1 6 -9 1 -7 8 9 21 12 11 26 18 29 16 4 -3 7 4 7 14 0 10 -4 16
-8 14 -4 -3 -8 0 -8 5 0 6 5 11 12 11 6 0 3 7 -8 15 -11 9 -13 13 -4 10 8 -3
21 -1 29 4 12 8 12 12 2 24 -10 13 -9 15 11 10 18 -4 20 -2 8 6 -12 8 -12 11
3 17 15 5 15 9 5 22 -10 12 -10 14 0 8 8 -5 16 1 22 16 9 21 10 20 5 -7 -17
-108 -24 -175 -30 -290 -5 -89 -14 -156 -31 -212 -37 -130 -55 -273 -61 -488
l-6 -200 -52 -135 c-29 -74 -81 -214 -115 -310 -34 -96 -80 -220 -102 -275
-22 -55 -93 -244 -158 -420 -65 -176 -148 -396 -185 -490 -37 -93 -70 -181
-75 -195 -28 -91 -352 -873 -444 -1072 l-35 -78 2325 0 c2211 0 2324 1 2316
18 -52 97 -328 701 -452 987 -45 105 -130 298 -188 430 -58 132 -134 309 -169
394 -35 84 -91 210 -124 280 -113 235 -160 352 -195 484 -20 73 -51 184 -71
247 -32 107 -35 128 -43 315 -13 291 -47 490 -108 625 -13 30 -26 69 -27 85
-13 142 -53 333 -91 430 l-16 40 24 -25 c13 -13 23 -29 23 -35 0 -5 7 -10 15
-10 17 0 43 -43 36 -61 -2 -6 3 -11 11 -10 9 0 18 -5 21 -13 3 -9 0 -11 -9 -6
-12 7 -12 5 -1 -6 11 -12 14 -12 23 1 8 11 9 8 4 -14 -5 -26 -4 -28 9 -17 18
15 20 8 6 -20 -13 -23 -7 -25 14 -3 15 14 16 14 17 -3 1 -10 1 -25 0 -35 -1
-9 3 -19 8 -22 6 -4 7 -14 4 -23 -5 -12 -2 -15 10 -10 11 4 20 -1 27 -13 6
-11 8 -20 4 -20 -4 0 1 -9 10 -19 10 -11 15 -28 12 -38 -3 -10 -1 -25 5 -33 9
-13 10 -12 5 3 -3 11 -2 16 4 12 6 -3 7 -17 4 -29 -3 -14 3 -37 15 -59 11 -21
16 -37 11 -37 -6 0 -10 -5 -10 -10 0 -6 7 -10 16 -8 10 2 19 -4 21 -12 4 -13
3 -13 -6 0 -9 13 -11 13 -11 -2 0 -10 5 -18 11 -18 5 0 7 -5 3 -11 -3 -6 -1
-15 6 -19 8 -5 9 -13 2 -26 -11 -22 -5 -47 10 -38 6 4 8 -1 3 -15 -3 -11 -2
-21 3 -21 6 0 9 -13 8 -29 -1 -17 2 -28 6 -25 12 7 10 -20 -2 -34 -6 -6 -7
-10 -3 -7 4 3 12 -7 19 -22 8 -21 8 -32 0 -42 -9 -12 -8 -13 3 -6 11 6 13 2 8
-23 -4 -17 -2 -34 3 -37 5 -3 10 -16 10 -28 -1 -35 7 -94 13 -103 3 -5 3 -24
1 -42 -2 -20 0 -31 6 -27 6 3 10 -3 10 -14 0 -12 9 -26 20 -33 26 -17 26 -28
-1 -21 -21 6 -21 6 2 -21 17 -19 25 -23 31 -14 6 10 8 10 8 1 0 -7 -8 -17 -18
-22 -14 -8 -14 -11 -2 -12 8 -1 18 -1 21 -1 4 1 5 -7 2 -17 -3 -10 2 -25 10
-32 15 -14 11 -49 -7 -62 -6 -4 2 -4 19 -1 29 7 29 7 12 -11 -10 -10 -14 -21
-9 -24 5 -3 8 -14 7 -23 -2 -10 2 -16 8 -15 7 1 12 -5 12 -13 0 -8 2 -17 5
-20 3 -3 11 -16 18 -30 7 -14 10 -17 7 -7 -3 10 -1 15 5 12 6 -3 8 -19 5 -35
-3 -16 0 -32 7 -36 7 -5 8 -3 3 7 -5 8 1 6 12 -4 21 -18 22 -18 32 0 6 10 11
12 11 6 0 -14 26 -13 49 1 11 7 13 5 8 -9 -6 -14 -3 -16 12 -12 14 3 18 1 14
-9 -3 -8 1 -14 11 -14 9 0 16 -8 16 -20 0 -11 5 -20 11 -20 8 0 7 -5 -1 -15
-7 -9 -10 -18 -7 -22 4 -3 3 -11 -2 -17 -6 -6 -11 -23 -13 -36 -2 -14 -7 -30
-10 -36 -9 -14 -14 -92 -6 -99 3 -4 2 -19 -2 -35 -5 -19 -5 -30 3 -33 6 -2 10
-29 10 -66 -1 -40 2 -59 8 -50 5 8 9 10 9 6 0 -4 -7 -19 -16 -32 -10 -16 -12
-25 -5 -25 7 0 9 -9 5 -25 -4 -17 -1 -27 9 -31 8 -3 13 -13 10 -23 -2 -10 3
-25 11 -34 12 -11 13 -17 3 -20 -7 -3 -4 -6 7 -6 12 -1 16 -6 12 -16 -3 -8 -1
-15 3 -15 10 0 34 -55 36 -80 0 -8 6 -14 13 -13 6 2 9 -3 6 -11 -3 -7 2 -16
10 -19 9 -4 16 -13 16 -21 0 -8 12 -24 28 -36 15 -12 21 -18 13 -14 -10 5 -12
3 -7 -5 5 -7 14 -10 22 -7 8 3 11 0 8 -9 -3 -8 3 -16 15 -20 12 -3 19 -11 16
-16 -4 -5 -1 -9 4 -9 15 0 51 -37 44 -44 -3 -3 -1 -11 4 -18 10 -13 9 -118 -1
-144 -3 -9 1 -28 9 -43 8 -16 12 -31 9 -33 -17 -18 -11 -83 7 -72 5 3 9 -2 9
-11 0 -9 16 -32 35 -51 19 -18 35 -37 35 -41 0 -5 11 -20 26 -35 23 -25 24
-29 10 -44 -19 -19 -20 -27 -3 -21 6 2 20 -9 30 -26 10 -16 24 -27 31 -24 10
4 12 0 9 -14 -4 -13 0 -19 11 -19 9 0 16 -5 16 -10 0 -6 12 -22 26 -35 15 -14
23 -25 19 -25 -5 0 -2 -6 6 -13 17 -14 73 -88 75 -99 1 -5 2 -14 3 -21 0 -7
10 -23 22 -35 11 -13 21 -31 22 -42 1 -11 5 -20 9 -20 4 0 8 -7 8 -15 0 -9 8
-27 17 -42 10 -14 18 -33 19 -41 2 -8 8 -18 15 -22 6 -4 9 -12 5 -18 -3 -5 1
-15 9 -22 8 -7 12 -16 9 -21 -3 -5 0 -9 6 -9 7 0 10 -6 7 -14 -3 -8 1 -17 9
-20 8 -3 14 -11 14 -18 0 -9 -3 -8 -10 2 -5 8 -10 10 -10 4 0 -16 25 -35 36
-26 4 4 3 0 -3 -8 -9 -12 -6 -29 14 -75 14 -33 30 -66 36 -74 7 -7 12 -19 12
-25 2 -23 25 -66 36 -66 6 0 9 -6 6 -13 -3 -7 4 -28 14 -47 18 -34 18 28 19
2413 l0 2447 -2560 0 -2560 0 0 -2445z m3221 1863 c31 -61 21 -57 -15 5 -18
32 -38 63 -45 70 -6 6 -11 15 -11 21 0 13 47 -50 71 -96z m-703 45 c38 -1 43
-3 38 -11 -9 -16 66 -3 86 15 12 10 18 13 15 6 -9 -15 5 -24 23 -13 17 10 42
1 33 -13 -10 -17 27 -38 48 -26 15 8 17 6 12 -7 -5 -14 -2 -14 23 2 15 11 25
13 21 7 -5 -9 -2 -13 8 -13 10 0 13 -5 9 -12 -4 -7 -4 -10 0 -6 5 4 19 3 32
-2 25 -10 32 -2 14 16 -6 6 -2 10 12 11 16 2 19 0 9 -6 -10 -6 -10 -10 -1 -16
6 -4 9 -13 6 -21 -3 -8 1 -14 9 -14 8 0 15 5 15 11 0 5 5 7 10 4 6 -4 8 -11 5
-16 -4 -5 5 -9 19 -9 14 0 28 5 32 12 4 7 3 8 -4 4 -7 -4 -12 -2 -12 4 0 7 7
9 16 6 9 -3 21 -6 27 -6 7 0 4 -5 -6 -11 -30 -18 -9 -27 30 -14 35 13 39 12
54 -7 11 -14 18 -17 23 -9 31 49 68 -109 46 -198 -19 -78 -31 -84 -120 -55
-298 98 -546 122 -765 71 -114 -26 -274 -81 -359 -124 l-48 -25 -29 28 c-34
33 -49 80 -48 152 2 52 2 52 20 30 11 -11 19 -17 19 -12 0 5 18 17 40 27 22 9
40 24 40 33 0 8 4 13 10 9 5 -3 7 -12 4 -20 -5 -12 -1 -12 20 -2 21 10 23 13
8 19 -19 7 -8 11 26 8 14 -1 21 3 20 12 -2 8 4 12 16 10 17 -3 18 -2 7 12 -11
13 -11 16 2 16 9 0 21 -8 26 -17 9 -16 10 -14 11 9 0 26 20 52 20 26 0 -7 9
-2 19 11 12 15 23 21 31 16 8 -5 11 -4 7 2 -10 16 23 25 40 11 11 -9 13 -8 11
2 -2 8 3 15 10 16 6 1 17 2 23 3 6 0 9 7 6 14 -3 8 1 14 9 14 8 0 14 -7 14
-14 0 -12 3 -12 15 1 8 8 15 19 15 25 0 6 5 11 10 11 9 0 14 -15 11 -33 -1 -5
3 -6 9 -2 6 3 7 11 4 17 -4 7 -2 8 4 4 7 -4 20 -9 31 -11 14 -2 18 1 14 15 -3
10 1 21 8 25 7 5 10 4 6 -2 -6 -10 0 -11 72 -13 13 0 30 -5 37 -11 9 -7 14 -8
14 -1 0 5 -7 12 -15 16 -8 3 -15 11 -15 18 0 9 3 9 8 2 4 -5 17 -10 30 -11z
m62 13 c0 -11 -19 -15 -25 -6 -3 5 1 10 9 10 9 0 16 -2 16 -4z m180 -36 c0
-13 -12 -19 -26 -13 -8 3 -12 8 -9 12 5 10 35 10 35 1z m-550 -19 c0 -5 -7
-12 -16 -15 -14 -5 -15 -4 -4 9 14 17 20 19 20 6z m-360 -196 c-7 -9 -15 -13
-19 -10 -3 3 1 10 9 15 21 14 24 12 10 -5z m-406 -334 c3 -5 -3 -11 -15 -14
-16 -4 -18 -3 -8 9 13 16 16 17 23 5z m1206 -1306 c-24 -25 -48 -45 -52 -45
-4 0 -16 10 -27 21 -19 20 -19 22 -3 40 15 16 110 41 121 32 3 -2 -15 -24 -39
-48z m-314 -17 c102 -84 111 -103 73 -152 -17 -21 -24 -24 -35 -15 -8 6 -14
19 -14 28 0 9 -14 32 -31 51 -57 67 -89 113 -89 132 0 29 17 22 96 -44z m128
27 c-6 -16 -24 -21 -24 -7 0 11 11 22 21 22 5 0 6 -7 3 -15z m333 -15 c19 -32
63 -60 94 -60 21 0 39 -28 39 -61 0 -20 3 -21 50 -15 l50 7 0 -29 c0 -60 -73
-102 -176 -102 -51 0 -114 16 -114 29 0 4 15 12 33 19 25 10 29 14 17 22 -8 5
-18 6 -23 3 -15 -9 -65 18 -71 40 -3 12 -8 18 -12 14 -8 -8 -44 21 -44 36 0
27 103 127 131 127 4 0 16 -14 26 -30z m-239 -157 c0 -38 35 -96 68 -114 28
-14 36 -52 17 -79 -8 -12 -12 -24 -9 -27 3 -4 -1 -14 -9 -23 -14 -16 -13 -19
8 -33 22 -15 23 -14 20 12 -2 14 4 35 12 46 14 17 18 18 37 6 88 -55 152 -82
232 -97 82 -16 90 -20 108 -51 11 -18 21 -33 22 -33 1 0 0 18 -2 40 -3 32 -1
40 12 40 9 0 43 13 75 29 l58 30 17 -72 c9 -40 19 -95 23 -124 5 -49 4 -53
-28 -83 -41 -37 -106 -70 -139 -70 -22 0 -22 2 -16 53 3 28 6 62 6 75 0 18 4
22 19 17 11 -3 22 -1 26 5 9 14 7 16 -26 23 -23 6 -27 3 -38 -33 l-12 -39 -77
1 c-56 1 -84 -2 -100 -13 -12 -9 -19 -19 -15 -22 3 -4 44 -7 90 -7 l83 0 0
-35 c0 -32 -4 -37 -40 -51 -82 -33 -107 -94 -75 -184 11 -32 12 -46 4 -56 -8
-9 -8 -14 -1 -14 17 0 19 -42 5 -72 -14 -29 -33 -37 -33 -15 -1 6 -8 -1 -16
-17 -17 -31 -28 -26 -38 16 -4 20 -1 30 11 37 10 5 15 13 11 16 -4 4 -19 -5
-35 -20 -15 -14 -22 -25 -14 -23 22 5 25 -29 6 -59 -16 -24 -18 -24 -27 -9 -6
10 -7 31 -4 47 6 33 1 36 -20 14 -31 -31 -50 -18 -63 40 -16 69 -32 73 -18 4
8 -41 7 -53 -4 -60 -28 -18 -47 -10 -54 24 -11 53 -36 126 -46 133 -9 5 -7
-39 6 -129 l7 -47 -30 0 c-29 0 -29 0 -36 73 -3 39 -10 97 -14 127 -7 52 -1
125 17 215 6 33 9 36 15 20 45 -118 45 -117 84 -89 12 8 22 10 22 5 0 -6 -12
-18 -26 -27 -23 -16 -24 -18 -8 -27 14 -8 23 -4 45 20 23 27 26 37 22 79 -8
88 -23 145 -48 188 -35 59 -57 77 -105 83 -41 6 -42 7 -35 37 4 17 7 54 6 82
-2 40 2 53 15 58 13 5 14 9 4 21 -17 20 -19 114 -4 152 24 56 52 48 52 -14z
m-88 35 c0 -7 3 -22 6 -34 4 -15 -4 -30 -26 -53 -18 -18 -35 -30 -37 -27 -7 7
39 126 48 126 5 0 9 -6 9 -12z m-400 -39 c48 -10 199 -79 200 -91 0 -13 -96
-26 -145 -18 -95 14 -124 35 -123 88 1 35 3 36 68 21z m548 -29 c26 -46 28
-57 6 -39 -14 12 -44 61 -44 74 0 16 18 0 38 -35z m72 -76 c0 -8 -4 -12 -10
-9 -5 3 -10 10 -10 16 0 5 5 9 10 9 6 0 10 -7 10 -16z m-734 -291 c9 -3 14
-20 14 -47 0 -22 11 -71 24 -108 12 -38 19 -68 15 -68 -9 0 -43 111 -53 173
-4 23 -12 37 -21 37 -10 0 -14 9 -13 28 2 40 12 52 16 19 2 -16 10 -31 18 -34z
m497 -292 c-4 -6 -53 41 -53 50 0 4 13 -4 28 -19 15 -15 26 -29 25 -31z m658
-93 c-49 -210 -111 -365 -172 -429 -13 -14 -31 -36 -39 -48 -19 -30 -26 -37
-79 -93 -60 -63 -78 -158 -31 -158 35 0 38 75 3 82 -10 2 23 42 101 122 64 65
116 114 116 110 0 -5 -18 -33 -40 -62 -22 -29 -40 -59 -40 -68 0 -8 -4 -12
-10 -9 -5 3 -10 1 -10 -4 0 -6 7 -11 16 -11 12 0 11 -6 -8 -31 -13 -17 -28
-39 -34 -50 -6 -11 -28 -38 -48 -60 -27 -31 -42 -40 -57 -36 -12 3 -29 1 -39
-5 -20 -13 -113 9 -185 44 -22 10 -32 17 -23 14 23 -7 32 9 14 23 -8 7 -25 9
-42 5 -20 -5 -30 -2 -40 11 -13 17 -15 17 -41 1 -28 -17 -28 -17 -6 2 l21 19
-29 24 c-38 31 -37 37 7 37 20 0 40 6 45 13 4 7 11 10 15 7 3 -4 20 0 36 8 16
8 33 12 38 9 6 -4 13 0 16 9 4 10 16 13 37 10 20 -2 27 0 18 5 -10 6 -10 10
-1 16 6 4 14 4 17 1 3 -3 14 -1 25 5 13 7 17 16 13 30 -4 11 -2 19 4 19 7 0
11 23 11 55 0 45 4 56 21 65 27 15 32 9 34 -48 3 -65 5 -70 16 -44 8 20 7 61
-3 101 -3 14 61 66 70 57 4 -5 15 3 47 32 8 7 15 10 15 6 0 -4 9 1 21 12 l20
18 -4 -54 c-4 -44 -3 -50 6 -32 7 15 16 21 29 16 10 -3 18 -1 18 5 0 6 7 11
15 11 8 0 21 12 28 28 13 24 97 293 97 309 0 3 3 4 6 0 3 -3 -4 -48 -15 -99z
m-635 -108 l-9 -100 -28 0 c-15 0 -31 5 -34 10 -14 22 8 94 36 123 16 16 29
34 29 41 0 10 9 26 14 26 1 0 -3 -45 -8 -100z m-485 -82 c21 -60 37 -108 34
-108 -11 0 -86 209 -84 234 1 13 1 12 50 -126z m394 99 c-19 -71 -30 -97 -40
-97 -24 0 -34 25 -25 64 10 43 20 58 21 30 0 -14 2 -15 6 -4 16 43 49 48 38 7z
m-100 -24 c-8 -54 -10 -58 -24 -48 -22 13 -8 95 16 95 12 0 14 -9 8 -47z m475
-115 c0 -22 -26 -58 -42 -58 -10 0 -11 64 -1 73 15 16 43 6 43 -15z m-440 2
c0 -5 -2 -10 -4 -10 -3 0 -8 5 -11 10 -3 6 -1 10 4 10 6 0 11 -4 11 -10z m30
-10 c0 -5 -4 -10 -10 -10 -5 0 -10 5 -10 10 0 6 5 10 10 10 6 0 10 -4 10 -10z
m330 -4 c0 -8 2 -21 5 -28 4 -9 -4 -19 -20 -26 -27 -13 -28 -12 -38 35 -3 12
0 24 7 27 23 9 46 6 46 -8z m-250 -17 c0 -6 -4 -7 -10 -4 -5 3 -10 11 -10 16
0 6 5 7 10 4 6 -3 10 -11 10 -16z m150 -10 c0 -24 -4 -30 -17 -27 -25 5 -29
45 -6 51 10 3 19 5 21 6 1 0 2 -13 2 -30z m-114 -4 c-1 -28 -11 -33 -20 -9 -9
24 -7 34 8 34 9 0 13 -10 12 -25z m-189 -67 c-3 -8 -6 -5 -6 6 -1 11 2 17 5
13 3 -3 4 -12 1 -19z m83 0 c0 -7 3 -23 6 -35 10 -35 -9 -27 -28 12 -17 34
-17 35 2 35 11 0 20 -6 20 -12z m95 -11 c0 -1 6 -17 12 -35 10 -28 9 -33 -1
-29 -8 3 -19 0 -25 -6 -8 -8 -11 -5 -11 10 0 12 -4 24 -9 27 -5 3 -11 15 -14
27 -5 18 -2 20 21 14 15 -4 27 -7 27 -8z m214 -37 c-1 -36 -6 -50 -16 -50 -9
0 -11 -5 -7 -12 6 -10 4 -10 -8 0 -13 10 -17 10 -21 0 -2 -7 -8 8 -12 35 -8
54 4 77 41 77 22 0 24 -4 23 -50z m-142 24 c5 -15 7 -15 15 0 16 28 28 17 28
-26 l0 -41 -25 23 -25 23 -1 -24 -1 -24 -8 25 c-12 36 -11 60 0 60 6 0 13 -7
17 -16z m-257 -294 c6 -11 9 -20 8 -20 -2 0 -11 9 -21 20 -9 11 -13 20 -7 20
5 0 14 -9 20 -20z"/>
<path d="M2641 4573 c-1 -19 15 -24 41 -13 22 10 22 10 -4 5 -16 -3 -28 0 -31
8 -4 9 -6 9 -6 0z"/>
<path d="M2400 4561 c0 -5 7 -11 14 -14 10 -4 13 -1 9 9 -6 15 -23 19 -23 5z"/>
<path d="M2127 4469 c7 -7 15 -10 18 -7 3 3 -2 9 -12 12 -14 6 -15 5 -6 -5z"/>
<path d="M3085 2130 c-3 -5 1 -10 9 -10 9 0 16 5 16 10 0 6 -4 10 -9 10 -6 0
-13 -4 -16 -10z"/>
<path d="M3106 2015 c-9 -9 -14 -21 -11 -25 8 -13 50 5 50 20 0 20 -21 23 -39
5z"/>
<path d="M2542 1810 c0 -25 3 -54 8 -65 7 -16 9 -13 8 15 0 19 -4 49 -8 65 -7
27 -8 26 -8 -15z"/>
<path d="M2882 1638 c-5 -7 -6 -22 -2 -33 6 -17 8 -15 12 13 5 36 5 37 -10 20z"/>
<path d="M2828 1425 c-3 -14 -2 -25 2 -25 4 0 10 11 12 25 3 14 2 25 -2 25 -4
0 -10 -11 -12 -25z"/>
<path d="M3465 4230 c3 -5 11 -10 16 -10 6 0 7 5 4 10 -3 6 -11 10 -16 10 -6
0 -7 -4 -4 -10z"/>
<path d="M3620 3981 c0 -6 4 -13 10 -16 6 -3 7 1 4 9 -7 18 -14 21 -14 7z"/>
<path d="M3970 2759 c0 -5 5 -7 10 -4 6 3 10 8 10 11 0 2 -4 4 -10 4 -5 0 -10
-5 -10 -11z"/>
<path d="M4423 1505 c0 -8 4 -15 9 -15 4 0 8 4 8 9 0 6 -4 12 -8 15 -5 3 -9
-1 -9 -9z"/>
</g>
</svg>
